<?xml version="1.0" encoding="utf-8"?>
<!-- Generator: Adobe Illustrator 24.2.0, SVG Export Plug-In . SVG Version: 6.00 Build 0)  -->
<svg version="1.1" id="레이어_1" xmlns="http://www.w3.org/2000/svg" xmlns:xlink="http://www.w3.org/1999/xlink" x="0px"
	 y="0px" viewBox="0 0 48 48" enable-background="new 0 0 48 48" xml:space="preserve">
<g>
	<path fill="#C1C1C1" d="M24,11.535c8.59,0,16.481,8.696,19.332,12.483c-1.294,1.722-3.682,4.5-6.715,6.997l2.616,2.358
		c5.04-4.263,8.248-9.077,8.248-9.373c0-0.428-10.512-15.944-23.48-15.944c-3.515,0-6.837,1.111-9.83,2.725l2.772,2.499
		C19.177,12.225,21.562,11.535,24,11.535z"/>
	<path fill="#C1C1C1" d="M32.637,27.428c0.402-1.04,0.645-2.16,0.645-3.341c0-5.127-4.155-9.283-9.283-9.283
		c-1.522,0-2.936,0.402-4.204,1.051l2.282,2.058c0.61-0.19,1.249-0.322,1.922-0.322c3.588,0,6.498,2.908,6.498,6.498
		c0,0.444-0.045,0.877-0.13,1.296L32.637,27.428z"/>
	<path fill="#C1C1C1" d="M35.424,31.954l-3.479-3.134l-2.118-1.91l-9.241-8.329l-2.118-1.908l-2.95-2.661l-2.731-2.459l-7.166-6.46
		L5.562,5.04L3.233,7.625l6.621,5.969C4.193,17.944,0.52,23.369,0.52,24c0,1.177,10.512,15.944,23.48,15.944
		c4.032,0,7.825-1.492,11.14-3.56l7.296,6.576l1.002-1.111l1.327-1.473l-6.715-6.053L35.424,31.954z M24,36.465
		c-8.94,0-17.045-8.825-19.53-12.443c1.338-1.922,4.263-5.296,8.02-8.056l3.63,3.272c-0.871,1.414-1.4,3.065-1.4,4.849
		c0,5.127,4.155,9.283,9.283,9.283c2.129,0,4.066-0.744,5.632-1.95l2.793,2.518C29.816,35.431,26.953,36.465,24,36.465z"/>
</g>
</svg>
