<?xml version="1.0" standalone="no"?>
<!DOCTYPE svg PUBLIC "-//W3C//DTD SVG 20010904//EN"
 "http://www.w3.org/TR/2001/REC-SVG-20010904/DTD/svg10.dtd">
<svg version="1.0" xmlns="http://www.w3.org/2000/svg"
 width="600.000000pt" height="600.000000pt" viewBox="0 0 600.000000 600.000000"
 preserveAspectRatio="xMidYMid meet">
<metadata>
Created by potrace 1.14, written by Peter Selinger 2001-2017
</metadata>
<g transform="translate(0.000000,600.000000) scale(0.100000,-0.100000)"
fill="#000000" stroke="none">
<path d="M4690 5934 c-203 -30 -322 -73 -417 -151 -40 -32 -112 -123 -97 -123
3 0 2 -6 -4 -12 -27 -35 -38 -253 -17 -363 55 -288 183 -483 357 -543 162 -56
446 52 640 241 102 101 181 229 196 320 10 65 7 206 -8 267 -30 131 -127 258
-241 316 -109 55 -252 72 -409 48z"/>
<path d="M800 5614 c-112 -18 -126 -21 -187 -39 -284 -83 -433 -305 -389 -580
35 -220 166 -364 431 -475 146 -61 335 -79 492 -46 118 25 215 122 264 264 78
226 15 621 -123 768 -46 49 -106 85 -178 104 -63 17 -221 19 -310 4z"/>
<path d="M5087 4644 c-1 -1 -23 -5 -48 -8 -136 -18 -293 -103 -419 -228 -57
-55 -88 -90 -162 -182 -10 -11 -21 -25 -26 -31 -4 -5 -59 -82 -121 -170 -281
-395 -391 -528 -587 -706 -62 -56 -301 -231 -385 -281 -270 -163 -608 -291
-944 -357 -128 -25 -168 -31 -246 -36 l-64 -3 -72 55 c-104 78 -259 236 -341
345 -133 177 -207 315 -337 628 -43 102 -86 203 -97 225 -40 78 -102 157 -172
216 -290 247 -560 247 -750 0 -111 -144 -180 -327 -225 -596 -30 -177 -30
-180 -38 -310 -17 -291 1 -533 62 -834 79 -391 301 -861 560 -1186 327 -411
691 -687 1190 -905 130 -57 402 -141 528 -164 15 -2 35 -7 45 -10 9 -2 37 -7
62 -10 25 -4 56 -8 70 -10 197 -34 623 -41 775 -12 11 2 46 7 79 11 76 9 102
14 266 50 233 51 565 183 785 312 77 45 188 116 195 123 3 3 37 28 75 55 80
57 88 63 204 165 89 77 163 150 241 236 83 91 105 118 178 216 295 394 498
887 558 1358 3 25 7 56 10 70 21 121 21 510 -1 630 -2 14 -6 48 -9 75 -11 114
-43 288 -77 415 -123 460 -339 761 -599 834 -48 13 -156 27 -163 20z"/>
<path d="M2500 3940 c-228 -46 -365 -131 -432 -267 -53 -108 -48 -245 14 -368
82 -161 313 -268 561 -261 252 8 372 130 379 386 5 155 -64 364 -147 445 -78
77 -206 99 -375 65z"/>
</g>
</svg>
